Coordinates
version=1
nRows=17
nColumns=24
inDegrees=yes

Units are S.I. units (second, meters, Newtons, ...)
Angles are in degrees.

endheader
time	pelvis_tilt	pelvis_list	pelvis_rotation	pelvis_tx	pelvis_ty	pelvis_tz	hip_flexion_r	hip_adduction_r	hip_rotation_r	knee_angle_r	ankle_angle_r	subtalar_angle_r	mtp_angle_r	hip_flexion_l	hip_adduction_l	hip_rotation_l	knee_angle_l	ankle_angle_l	subtalar_angle_l	mtp_angle_l	lumbar_extension	lumbar_bending	lumbar_rotation
      6.85000000	      6.56304980	     -5.33141990	     -0.87459651	     -0.74579900	      0.92843484	      0.24983907	    -16.94174906	      8.45321748	     -2.77656118	    -19.38682396	     11.58414844	      7.56506189	      0.00000000	      9.53627500	     -2.17274494	      1.05502830	     -5.51931405	     -3.19278863	     -6.32965334	      0.00000000	    -24.65579095	      5.42974833	      6.36065647
      6.86000000	      6.74079312	     -5.02971057	     -0.86085857	     -0.73517718	      0.92939273	      0.24841594	    -16.49046721	      7.89637260	     -3.27633002	    -21.57491751	      9.89224247	      7.39780606	      0.00000000	      9.17763148	     -1.70532286	      1.52761793	     -6.39259143	     -3.57427194	     -7.25732123	      0.00000000	    -24.66198485	      5.09444391	      6.10402842
      6.87000000	      6.92627088	     -4.71809006	     -0.77420171	     -0.72471787	      0.93041817	      0.24693364	    -15.88950888	      7.33785267	     -3.86103944	    -23.93696175	      7.84255683	      7.07497338	      0.00000000	      8.88087594	     -1.22833430	      1.72555474	     -7.42081404	     -3.38369507	     -7.74397618	      0.00000000	    -24.70070415	      4.76590755	      5.72320984
      6.88000000	      7.12121894	     -4.40592391	     -0.64905205	     -0.71445342	      0.93147291	      0.24540329	    -15.14346091	      6.76488975	     -4.50543490	    -26.45525080	      5.40600042	      6.64039648	      0.00000000	      8.57546572	     -0.75087077	      1.87137253	     -8.47936360	     -2.90870852	     -8.03825725	      0.00000000	    -24.78438991	      4.44921051	      5.35702786
      6.89000000	      7.24547894	     -4.15194869	     -0.54399786	     -0.70440211	      0.93239806	      0.24395101	    -14.19033486	      6.28829416	     -4.87258179	    -29.07693184	      2.49529991	      5.63117416	      0.00000000	      8.32222525	     -0.35311040	      1.88209551	     -9.51032326	     -2.03640366	     -8.14702311	      0.00000000	    -24.81774826	      4.19607712	      5.02048702
      6.90000000	      7.37871100	     -3.91784671	     -0.45671741	     -0.69455993	      0.93329243	      0.24253116	    -13.12213711	      5.81493771	     -5.18612045	    -31.79071422	     -0.66077523	      4.64289345	      0.00000000	      8.01654777	      0.00381771	      1.73052279	    -10.45918938	     -1.04378743	     -7.97488911	      0.00000000	    -24.90296058	      3.96758805	      4.70081023
      6.91000000	      7.49030550	     -3.71977633	     -0.42624432	     -0.68492099	      0.93409150	      0.24121371	    -11.92020755	      5.37788173	     -5.32699597	    -34.57841093	     -3.89164979	      3.67707471	      0.00000000	      7.66364971	      0.30354911	      1.48287616	    -11.26805944	     -0.01379988	     -7.70556888	      0.00000000	    -25.00203109	      3.76874334	      4.44075117
      6.92000000	      7.57975621	     -3.55824105	     -0.47434469	     -0.67548461	      0.93479271	      0.24003976	    -10.59908679	      4.98618515	     -5.26765944	    -37.42187987	     -6.92688422	      2.86243852	      0.00000000	      7.25440157	      0.55080299	      1.18037889	    -11.91567570	      0.97479837	     -7.43860748	      0.00000000	    -25.11622710	      3.59250547	      4.25741014
      6.93000000	      7.64455915	     -3.42442247	     -0.59959844	     -0.66624634	      0.93539336	      0.23901835	     -9.17014089	      4.64258156	     -5.02989897	    -40.30283963	     -9.47076231	      2.29069014	      0.00000000	      6.79532378	      0.76424699	      0.86924892	    -12.40491091	      1.87577151	     -7.25025235	      0.00000000	    -25.24094070	      3.42783643	      4.14748244
      6.94000000	      7.68459568	     -3.30816584	     -0.79340455	     -0.65719938	      0.93590717	      0.23814868	     -7.65252910	      4.34914037	     -4.65192320	    -43.18692103	    -11.26875237	      1.96684121	      0.00000000	      6.29466428	      0.96193260	      0.57747246	    -12.75054693	      2.67575492	     -7.17299950	      0.00000000	    -25.37418081	      3.26484508	      4.09819114
      6.95000000	      7.71687980	     -3.18406327	     -1.04323861	     -0.64832046	      0.93637311	      0.23741752	     -6.08755068	      4.09149890	     -4.17378058	    -46.02399394	    -12.14952424	      1.79733340	      0.00000000	      5.73255190	      1.17919691	      0.34489234	    -12.94805885	      3.33958738	     -7.26334039	      0.00000000	    -25.52730938	      3.07467719	      4.08318630
      6.96000000	      7.71646694	     -3.09439784	     -1.27537974	     -0.63962438	      0.93678090	      0.23672335	     -4.47720333	      3.91470526	     -3.73377208	    -48.72808937	    -12.18437140	      1.59790330	      0.00000000	      5.19574016	      1.36887063	      0.15830233	    -13.10543405	      4.02211694	     -7.36730513	      0.00000000	    -25.67212916	      2.94228885	      4.08453937
      6.97000000	      7.72318140	     -2.99915829	     -1.49604891	     -0.63105324	      0.93721851	      0.23608512	     -2.89363236	      3.78810641	     -3.31083038	    -51.22922465	    -11.43444513	      1.18594846	      0.00000000	      4.60645465	      1.57438437	      0.04153745	    -13.15799308	      4.60095227	     -7.53941488	      0.00000000	    -25.83535325	      2.80754135	      4.04638723
      6.98000000	      7.71040175	     -2.92887240	     -1.64763922	     -0.62260043	      0.93765961	      0.23539200	     -1.32816390	      3.72438308	     -3.01179718	    -53.46188110	    -10.11293326	      0.48118394	      0.00000000	      4.03402178	      1.76250194	      0.01344193	    -13.18009998	      5.16683642	     -7.72425168	      0.00000000	    -25.98050834	      2.73902348	      3.96311592
      6.99000000	      7.71629474	     -2.88058854	     -1.73212166	     -0.61424583	      0.93818421	      0.23464322	      0.16242405	      3.71256174	     -2.82566727	    -55.37753619	     -8.47282063	     -0.60042243	      0.00000000	      3.42904361	      1.93319171	      0.07740982	    -13.16083667	      5.69535717	     -7.88705183	      0.00000000	    -26.14173906	      2.72825409	      3.84285249
      7.00000000	      7.69006619	     -2.89166629	     -1.74104944	     -0.60596790	      0.93873581	      0.23384606	      1.62425041	      3.78619302	     -2.75820771	    -56.95171359	     -6.68004564	     -1.95837116	      0.00000000	      2.85888380	      2.03395756	      0.18505227	    -13.12002253	      6.17907845	     -8.04470234	      0.00000000	    -26.25142470	      2.81614056	      3.65862313
      7.01000000	      7.71270032	     -2.91928192	     -1.70362230	     -0.59774972	      0.93939892	      0.23300981	      2.97355209	      3.87556226	     -2.78193291	    -58.19983402	     -4.91267857	     -3.49839442	      0.00000000	      2.21977104	      2.11662066	      0.35978468	    -13.03934922	      6.67246207	     -8.14739387	      0.00000000	    -26.40398180	      2.93032740	      3.48194694
